<svg width="46" height="62" viewBox="0 0 46 62" fill="none" xmlns="http://www.w3.org/2000/svg">
<ellipse cx="5.14079" cy="3.04491" rx="2.84171" ry="2.83044" fill="white"/>
<ellipse cx="17.7707" cy="3.04491" rx="2.84171" ry="2.83044" fill="white"/>
<ellipse cx="30.4006" cy="3.04491" rx="2.84171" ry="2.83044" fill="white"/>
<ellipse cx="43.0302" cy="3.04491" rx="2.84171" ry="2.83044" fill="white"/>
<ellipse cx="5.14079" cy="16.8826" rx="2.84171" ry="2.83044" fill="white"/>
<ellipse cx="17.7707" cy="16.8826" rx="2.84171" ry="2.83044" fill="white"/>
<ellipse cx="30.4006" cy="16.8826" rx="2.84171" ry="2.83044" fill="white"/>
<ellipse cx="43.0302" cy="16.8826" rx="2.84171" ry="2.83044" fill="white"/>
<ellipse cx="5.14079" cy="30.7203" rx="2.84171" ry="2.83044" fill="white"/>
<ellipse cx="17.7707" cy="30.7203" rx="2.84171" ry="2.83044" fill="white"/>
<ellipse cx="30.4006" cy="30.7203" rx="2.84171" ry="2.83044" fill="white"/>
<ellipse cx="43.0302" cy="30.7203" rx="2.84171" ry="2.83044" fill="white"/>
<ellipse cx="5.14079" cy="44.558" rx="2.84171" ry="2.83044" fill="white"/>
<ellipse cx="17.7707" cy="44.558" rx="2.84171" ry="2.83044" fill="white"/>
<ellipse cx="30.4006" cy="44.558" rx="2.84171" ry="2.83044" fill="white"/>
<ellipse cx="43.0302" cy="44.558" rx="2.84171" ry="2.83044" fill="white"/>
<ellipse cx="5.14079" cy="58.3956" rx="2.84171" ry="2.83044" fill="white"/>
<ellipse cx="17.7707" cy="58.3956" rx="2.84171" ry="2.83044" fill="white"/>
<ellipse cx="30.4006" cy="58.3956" rx="2.84171" ry="2.83044" fill="white"/>
<ellipse cx="43.0302" cy="58.3956" rx="2.84171" ry="2.83044" fill="white"/>
</svg>
