<svg width="20" height="16" viewBox="0 0 20 16" fill="none" xmlns="http://www.w3.org/2000/svg">
<path d="M16.9999 0H2.99994C2.20429 0 1.44123 0.316071 0.878619 0.87868C0.31601 1.44129 -6.10352e-05 2.20435 -6.10352e-05 3V13C-6.10352e-05 13.7956 0.31601 14.5587 0.878619 15.1213C1.44123 15.6839 2.20429 16 2.99994 16H16.9999C17.7956 16 18.5587 15.6839 19.1213 15.1213C19.6839 14.5587 19.9999 13.7956 19.9999 13V3C19.9999 2.20435 19.6839 1.44129 19.1213 0.87868C18.5587 0.316071 17.7956 0 16.9999 0ZM16.9999 2L10.4999 6.47C10.3479 6.55777 10.1755 6.60397 9.99994 6.60397C9.8244 6.60397 9.65196 6.55777 9.49994 6.47L2.99994 2H16.9999Z" fill="#7230DA"/>
</svg>
